<?xml version="1.0" standalone="no"?>
<!DOCTYPE svg PUBLIC "-//W3C//DTD SVG 20010904//EN"
 "http://www.w3.org/TR/2001/REC-SVG-20010904/DTD/svg10.dtd">
<svg version="1.0" xmlns="http://www.w3.org/2000/svg"
 width="2732.000000pt" height="2732.000000pt" viewBox="0 0 2732.000000 2732.000000"
 preserveAspectRatio="xMidYMid meet">
<metadata>
Created by potrace 1.14, written by Peter Selinger 2001-2017
</metadata>
<g transform="translate(0.000000,2732.000000) scale(0.100000,-0.100000)"
fill="#000000" stroke="none">
<path d="M7160 24749 c-204 -36 -299 -60 -455 -116 -224 -79 -461 -116 -738
-115 -222 1 -218 3 -191 -100 60 -234 303 -583 520 -747 l61 -47 -47 -63
c-119 -158 -226 -409 -300 -703 -59 -238 -70 -320 -45 -348 26 -28 53 -25 152
19 146 64 268 99 375 107 l97 7 10 -42 c6 -22 15 -58 21 -78 24 -96 44 -277
43 -408 -1 -104 -8 -182 -29 -305 -38 -226 -40 -452 -6 -551 45 -131 122 -225
220 -270 94 -43 148 -56 372 -94 446 -75 696 -90 1415 -82 522 6 704 14 1020
43 492 45 1284 171 1758 280 83 19 181 41 217 49 36 8 133 30 215 50 83 20
177 42 210 50 33 8 177 42 320 75 323 76 845 206 1240 310 442 116 810 194
1202 254 57 9 147 23 200 31 501 77 1030 115 1590 115 810 0 1320 -52 2058
-209 158 -33 526 -119 587 -137 15 -4 14 -12 -8 -77 -80 -235 -101 -622 -47
-872 19 -89 100 -258 164 -341 121 -158 319 -284 537 -341 82 -21 121 -25 252
-27 85 0 225 3 310 8 231 13 414 -15 594 -91 57 -23 119 -63 141 -90 6 -7 22
-17 37 -22 63 -24 72 36 33 212 -79 350 -232 651 -449 881 -25 28 -46 51 -46
51 0 1 19 8 43 15 213 63 428 248 623 535 122 180 197 371 152 388 -7 2 -69
-14 -138 -36 -118 -38 -132 -40 -257 -41 -72 -1 -134 2 -138 6 -4 4 -11 51
-16 105 -4 54 -15 139 -24 188 -9 51 -18 177 -22 290 -5 190 -4 207 22 335 25
124 27 148 22 295 -8 233 -45 334 -159 441 -95 88 -306 183 -582 259 -96 27
-792 196 -986 240 -63 14 -160 37 -215 50 -55 13 -165 36 -245 50 -80 15 -262
49 -405 75 -472 89 -674 118 -1027 145 -443 34 -1203 37 -1613 5 -703 -54
-1423 -171 -2070 -336 -999 -255 -985 -251 -1575 -390 -882 -208 -1116 -257
-1550 -328 -708 -116 -1100 -155 -1729 -172 l-254 -7 7 24 c3 13 13 69 22 124
38 241 -20 528 -160 792 -169 318 -487 577 -815 665 -61 16 -114 21 -271 23
-107 2 -220 -1 -250 -6z"/>
<path d="M12688 21150 c-86 -26 -132 -98 -132 -210 -1 -70 2 -81 42 -154 61
-114 55 -146 -25 -146 -62 0 -133 30 -268 115 -134 84 -214 114 -325 122 -190
14 -355 -75 -447 -241 -41 -72 -43 -80 -43 -159 0 -133 42 -223 134 -284 62
-42 96 -51 239 -63 127 -11 160 -22 201 -71 37 -43 32 -78 -14 -102 -29 -15
-50 -18 -125 -13 -49 3 -126 13 -170 21 -142 26 -282 13 -416 -38 -92 -35
-134 -64 -205 -139 -76 -81 -107 -144 -112 -224 -4 -57 -2 -62 27 -92 37 -36
78 -46 153 -38 172 19 234 18 318 -3 108 -27 215 -86 258 -140 17 -24 32 -50
32 -58 0 -25 -79 -93 -195 -168 -224 -144 -395 -291 -463 -399 -42 -66 -59
-143 -43 -195 15 -52 79 -107 138 -119 57 -13 99 -1 183 48 145 86 341 121
480 86 116 -30 181 -66 430 -238 129 -89 182 -114 308 -144 133 -33 240 -30
345 10 58 22 69 23 74 10 3 -8 -4 -63 -16 -122 -19 -93 -23 -162 -31 -512 -5
-223 -14 -448 -20 -500 -84 -778 -318 -1322 -630 -1467 -140 -65 -135 -60 -92
-89 23 -16 46 -19 142 -18 101 0 126 4 205 31 50 17 91 30 93 28 2 -2 -8 -25
-21 -52 -116 -230 -212 -739 -232 -1223 -18 -459 -81 -930 -159 -1185 l-25
-80 7 80 c4 44 7 195 7 335 0 279 -11 378 -65 586 -48 188 -139 406 -223 536
-26 42 -31 58 -34 135 -14 322 -169 683 -407 952 l-74 83 -12 82 c-45 318
-194 716 -393 1046 -289 480 -750 915 -1191 1125 -349 167 -692 222 -956 156
-101 -26 -126 -36 -134 -57 -11 -28 9 -40 132 -79 424 -135 814 -450 1116
-900 89 -132 208 -372 252 -509 33 -102 73 -270 74 -306 0 -13 -33 -15 -232
-16 -269 0 -379 -16 -584 -82 l-122 -39 -78 45 c-264 150 -666 311 -1009 402
-328 88 -756 147 -990 138 l-80 -3 -1 -28 c-1 -19 6 -33 20 -42 12 -8 102 -41
201 -73 99 -33 230 -83 292 -110 338 -152 684 -387 980 -666 l76 -72 -55 -73
c-65 -85 -148 -228 -148 -254 0 -25 34 -17 170 38 94 38 161 59 212 67 11 2
42 -29 89 -87 75 -93 239 -335 239 -352 0 -5 -22 -15 -50 -21 -27 -6 -94 -28
-147 -48 -267 -99 -484 -235 -715 -446 l-85 -78 -79 17 c-120 25 -390 22 -571
-6 -368 -56 -853 -222 -853 -293 0 -4 53 -8 118 -8 169 0 416 -30 617 -76 162
-37 405 -116 405 -131 0 -3 -24 -55 -53 -117 -129 -268 -215 -564 -247 -851
-17 -158 -10 -505 10 -505 4 0 29 55 55 123 26 67 72 170 102 229 164 318 482
607 823 748 120 49 133 38 38 -32 -59 -44 -180 -160 -246 -238 -52 -61 -132
-192 -182 -295 -189 -391 -230 -877 -116 -1358 46 -190 120 -388 213 -570 102
-198 303 -466 376 -500 68 -33 73 -23 41 77 -89 283 -133 532 -141 801 -9 308
22 532 107 787 128 383 360 688 662 869 45 27 91 49 103 49 52 0 270 -123 367
-208 l45 -38 -95 -49 c-141 -73 -245 -184 -296 -314 -31 -80 -5 -104 99 -91
226 29 472 -9 681 -105 87 -40 221 -125 254 -161 l25 -27 -35 7 c-19 4 -78 9
-130 13 -499 31 -1013 -326 -1037 -722 -6 -84 12 -155 39 -155 7 0 63 22 123
49 263 119 507 148 764 92 169 -37 298 -101 400 -196 48 -44 111 -127 111
-146 0 -3 -44 -39 -97 -80 -137 -103 -394 -361 -489 -491 -225 -305 -326 -612
-283 -854 13 -77 38 -154 50 -154 5 0 9 -61 9 -137 0 -135 13 -224 43 -315 49
-142 133 -347 204 -498 127 -266 144 -303 141 -305 -2 -1 -30 -12 -63 -25 -82
-31 -234 -38 -330 -16 -100 24 -234 93 -350 181 -182 139 -276 185 -420 206
-87 13 -148 2 -207 -36 l-37 -25 -53 25 c-76 35 -158 34 -229 -3 -46 -24 -59
-37 -86 -89 -81 -158 -41 -364 99 -507 56 -57 109 -88 124 -73 3 3 -4 35 -15
72 -27 85 -27 162 -2 193 21 25 46 27 101 11 34 -10 38 -16 43 -52 14 -102
113 -219 210 -248 49 -14 67 -40 22 -31 -78 14 -201 -71 -246 -170 -30 -67
-32 -196 -4 -273 34 -97 78 -178 116 -216 45 -45 69 -50 69 -14 0 41 41 136
74 172 21 23 49 38 88 49 l57 16 42 -35 c122 -105 333 -91 422 27 l32 43 61
-29 c110 -51 239 -59 337 -21 59 23 127 71 145 103 l15 27 51 -20 c79 -30 228
-28 325 6 83 29 162 78 233 145 l48 44 54 -50 c110 -100 273 -146 521 -145
139 0 173 4 257 26 124 33 227 87 278 145 22 25 40 48 40 53 0 4 4 19 10 33
l9 25 73 -25 c94 -32 144 -67 185 -132 46 -72 59 -112 66 -211 6 -78 15 -100
40 -101 21 0 115 112 143 170 80 166 72 381 -23 563 -26 51 -62 97 -123 158
-102 102 -190 151 -319 176 -107 21 -207 9 -308 -38 -37 -17 -89 -33 -116 -35
-26 -2 -90 -22 -142 -44 -125 -53 -194 -70 -287 -70 -83 0 -169 22 -230 60
l-33 20 71 0 c135 0 259 56 366 163 89 91 141 192 146 286 7 116 -43 123 -121
17 -83 -113 -181 -180 -303 -207 -98 -22 -190 25 -278 142 -41 54 -106 167
-106 183 0 3 26 -7 58 -21 46 -22 72 -27 137 -27 113 0 196 28 425 143 301
152 465 213 723 271 225 50 356 63 632 64 446 1 705 -52 1130 -230 304 -127
549 -197 810 -230 153 -20 284 -11 447 31 208 53 406 185 522 348 l34 47 38
-57 c64 -97 86 -197 65 -305 -35 -189 -221 -367 -476 -455 -95 -33 -231 -41
-307 -19 -91 26 -131 65 -191 189 -54 111 -76 133 -106 103 -21 -22 -28 -165
-11 -250 22 -111 74 -241 123 -308 11 -15 18 -30 16 -32 -3 -3 -31 -12 -62
-20 -75 -20 -140 -9 -305 50 -266 96 -376 118 -597 119 -80 0 -97 -3 -150 -29
-115 -56 -215 -193 -244 -334 -16 -77 -14 -235 5 -311 38 -159 147 -324 261
-400 97 -65 119 -28 56 93 -32 62 -37 80 -37 141 -1 79 13 111 71 176 52 57
213 136 213 105 0 -8 20 -55 45 -104 57 -113 118 -171 214 -203 80 -27 203
-23 300 10 l64 22 26 -21 c14 -11 55 -35 91 -52 58 -29 75 -32 175 -35 87 -3
121 0 160 15 l50 18 77 -73 c42 -39 100 -86 130 -102 194 -113 468 -119 683
-17 l97 46 45 -35 c167 -127 434 -106 592 47 55 53 111 152 111 196 0 13 3 22
8 20 64 -33 115 -52 178 -63 87 -17 99 -22 139 -65 28 -29 30 -36 29 -103 -1
-50 -11 -102 -33 -171 -46 -147 -44 -151 54 -81 132 94 222 259 246 448 11 91
1 184 -31 275 l-20 56 44 46 c55 56 80 103 103 192 9 37 22 68 28 68 28 0 116
-55 141 -87 34 -45 63 -121 72 -191 12 -94 45 -96 115 -6 58 76 82 165 81 304
-2 181 -50 306 -160 413 -27 26 -74 60 -104 75 -49 24 -66 27 -165 28 -93 1
-117 4 -154 23 -96 49 -251 63 -389 35 -149 -31 -283 -112 -495 -300 -222
-198 -359 -300 -464 -345 -100 -43 -321 -79 -330 -54 -2 6 11 19 29 30 134 77
395 314 524 475 189 236 322 504 379 760 10 44 19 141 22 235 4 136 2 175 -16
261 -33 161 -106 315 -194 411 -29 31 -38 49 -34 64 9 33 -9 66 -71 131 -162
171 -389 289 -642 334 -138 25 -398 23 -554 -5 -159 -28 -366 -89 -481 -141
-53 -24 -61 -16 -27 26 32 42 137 113 363 248 474 282 710 550 865 981 l32 90
43 8 c205 38 297 64 444 124 313 127 469 175 725 224 107 20 124 21 240 10
220 -22 973 -180 1221 -257 l87 -27 7 -71 c3 -39 28 -237 55 -441 39 -293 51
-413 56 -575 7 -233 17 -271 90 -343 144 -143 441 -155 589 -25 63 56 85 104
85 194 0 67 -3 78 -55 180 l-56 109 -74 385 c-40 212 -82 429 -93 482 l-20 97
96 100 c77 79 110 105 162 129 157 71 230 194 230 389 0 65 -7 103 -34 191
l-35 110 14 122 c17 140 9 224 -25 296 -12 25 -67 90 -123 147 l-101 102 33
90 c83 226 84 233 88 535 3 181 9 280 16 289 17 20 21 187 8 339 -11 124 -10
148 8 252 11 63 35 162 53 220 l34 105 69 1 c55 1 91 9 165 37 52 20 102 37
111 37 8 0 31 -16 50 -36 65 -68 139 -90 197 -60 35 19 113 100 145 152 39 63
123 262 156 371 65 210 121 512 121 651 0 109 -19 156 -100 249 l-68 78 38 75
c20 41 61 129 90 195 l53 120 -27 76 -27 77 45 91 c25 50 46 100 46 112 0 12
-18 54 -40 94 -22 40 -40 79 -40 87 0 8 18 59 40 113 22 54 40 107 40 118 0
10 -23 57 -50 102 l-50 83 45 123 c25 67 45 130 45 138 0 9 -25 45 -54 80
l-54 63 44 107 c24 58 44 115 44 125 0 10 -25 59 -56 108 l-56 89 35 82 c54
128 55 117 -8 191 l-56 66 44 78 c24 43 43 87 42 99 -2 31 -124 173 -148 173
-11 0 -58 9 -106 20 -214 48 -375 80 -405 80 l-33 0 -504 -977 c-277 -537
-542 -1054 -589 -1149 l-85 -172 -57 -27 c-31 -16 -65 -40 -76 -54 -65 -89
-286 -681 -347 -931 -29 -123 -34 -254 -10 -300 9 -17 19 -30 23 -30 5 0 17
-6 27 -14 17 -12 17 -16 -17 -72 -77 -127 -78 -244 -3 -399 46 -94 164 -222
256 -276 38 -22 69 -44 69 -48 0 -17 -33 -87 -71 -152 l-38 -66 -81 -19 c-130
-29 -165 -62 -177 -163 -5 -45 -8 -49 -42 -59 -46 -14 -136 -68 -230 -139
l-73 -55 -57 54 c-102 99 -221 173 -335 207 -37 12 -81 21 -97 21 -25 0 -29 5
-39 43 -49 192 -163 456 -264 612 -31 47 -56 90 -56 95 0 6 10 10 23 10 28 1
107 41 120 61 17 27 1 47 -63 79 -259 131 -611 506 -686 732 -18 55 -12 74 13
37 33 -50 159 -164 241 -217 156 -101 347 -160 474 -146 63 7 97 30 56 38 -12
2 -51 9 -85 15 -112 21 -300 110 -423 201 -58 43 -131 110 -119 110 2 0 36
-13 74 -29 132 -53 198 -66 350 -65 109 0 148 3 176 16 39 18 66 45 56 55 -4
3 -72 10 -151 14 -84 4 -181 16 -232 29 -92 21 -247 91 -299 133 -27 23 -28
25 -12 41 9 10 31 38 48 63 115 166 118 385 8 603 -38 78 -68 119 -204 286
-86 106 -153 224 -179 315 -23 79 -17 89 58 89 130 1 263 41 501 153 l170 79
112 7 c118 7 153 21 153 62 0 63 -296 276 -515 372 -89 39 -212 76 -356 107
-146 31 -300 90 -372 144 -27 19 -67 83 -67 105 0 14 91 63 194 106 133 55
248 78 396 78 194 1 332 -46 454 -155 75 -66 91 -61 82 25 -16 141 -79 267
-195 390 -192 202 -446 301 -756 296 -78 -2 -146 1 -153 5 -7 4 -12 29 -12 56
0 62 -31 162 -71 225 -128 205 -377 325 -676 325 l-112 0 -40 58 c-106 156
-276 267 -482 318 -62 15 -111 18 -294 16 -227 -2 -374 10 -434 34 -19 8 -62
32 -95 53 -130 82 -164 95 -251 95 -74 1 -83 -1 -117 -28 -88 -71 -105 -171
-48 -272 18 -32 48 -80 66 -107 31 -45 36 -61 36 -117 0 -45 -3 -53 -33 -81
-26 -24 -40 -29 -83 -29 -55 0 -90 17 -124 60 -35 45 -78 123 -110 205 -41
101 -77 163 -125 214 -74 80 -223 165 -342 196 -62 16 -201 19 -247 5z m4926
-7895 c65 -11 124 -13 215 -9 145 7 146 11 -14 -81 -174 -100 -295 -137 -535
-160 -85 -9 -87 -19 11 96 30 36 76 95 102 131 l48 67 42 -15 c23 -7 82 -20
131 -29z"/>
<path d="M7285 7529 c-499 -71 -635 -80 -852 -54 -82 10 -158 15 -168 11 -14
-5 -17 -15 -13 -49 10 -86 159 -356 266 -483 60 -70 235 -229 319 -288 24 -16
43 -33 43 -37 0 -5 -15 -20 -34 -34 -18 -14 -54 -52 -80 -84 l-46 -59 -49 13
c-75 19 -136 9 -176 -30 -47 -48 -60 -126 -60 -355 l0 -185 57 -215 c77 -294
92 -434 68 -615 -24 -178 -40 -466 -30 -532 24 -148 116 -320 235 -438 56 -55
182 -132 375 -227 184 -91 560 -236 905 -350 711 -234 1246 -323 2155 -359
565 -22 1306 36 2180 171 355 55 934 191 1585 373 187 53 419 115 515 138 96
23 353 86 570 140 217 54 523 127 681 163 157 36 382 88 500 116 354 85 620
136 1294 249 550 93 994 131 1523 131 l252 0 0 -65 c0 -229 79 -552 188 -770
74 -148 193 -290 313 -372 105 -72 256 -132 385 -152 143 -22 291 -30 380 -21
439 45 600 31 881 -81 111 -44 118 -42 133 36 13 71 7 183 -16 305 -46 233
-148 453 -266 577 l-41 41 51 52 c141 143 269 396 328 650 49 206 50 221 29
236 -21 16 -47 11 -125 -24 -160 -71 -318 -112 -429 -112 l-67 0 -13 75 c-7
41 -28 127 -46 190 -36 121 -65 289 -65 371 0 27 7 99 15 159 8 61 22 164 31
230 21 153 15 412 -11 495 -24 77 -60 144 -100 188 -65 72 -102 85 -585 192
-127 28 -344 58 -598 82 -325 32 -947 31 -1332 -1 -512 -42 -981 -113 -1775
-266 -74 -14 -430 -94 -555 -124 -41 -10 -106 -26 -145 -34 -290 -65 -576
-134 -1480 -356 -132 -33 -359 -93 -505 -135 -268 -76 -603 -163 -910 -236
-512 -121 -1108 -207 -1885 -271 -532 -44 -1239 -24 -1810 52 -229 30 -693
122 -710 141 -1 1 8 45 21 96 44 172 57 307 51 527 -9 316 -66 540 -194 757
-60 101 -228 272 -325 330 -225 134 -496 175 -833 127z"/>
<path d="M18848 3943 c-10 -2 -18 -6 -18 -8 0 -2 -9 -67 -21 -146 -17 -117
-18 -143 -7 -150 23 -15 46 -10 53 12 4 11 18 25 31 31 20 9 28 8 42 -6 23
-22 21 -139 -2 -184 -32 -62 -87 -63 -103 -1 -5 17 -12 30 -16 30 -4 -1 -19
-1 -33 -1 -25 0 -26 -2 -21 -42 20 -151 203 -139 252 17 26 83 18 194 -15 230
-22 24 -31 26 -72 22 -27 -2 -48 -2 -48 1 0 3 5 34 11 69 l11 63 69 0 c48 0
69 4 69 13 0 6 3 22 6 35 6 22 5 22 -82 21 -49 -1 -97 -3 -106 -6z"/>
<path d="M18543 3932 c-6 -4 -21 -72 -33 -151 -18 -119 -20 -145 -8 -152 20
-13 48 -11 48 4 0 21 36 49 57 45 30 -6 44 -47 38 -112 -7 -68 -26 -110 -55
-126 -28 -15 -58 3 -68 43 -5 17 -11 31 -15 30 -4 -2 -18 -3 -32 -3 -20 0 -25
-5 -25 -25 0 -49 27 -95 66 -111 69 -29 135 1 176 79 18 35 22 59 23 139 0 89
-2 98 -25 123 -22 24 -31 26 -73 22 -47 -4 -48 -4 -43 22 3 14 8 45 11 69 l7
42 69 0 c48 0 69 4 69 13 0 6 3 22 6 35 6 22 5 22 -87 22 -52 0 -99 -4 -106
-8z"/>
<path d="M18248 3913 c-26 -16 -67 -78 -58 -86 3 -2 17 -7 31 -11 21 -5 30 -1
43 19 10 15 26 25 39 25 73 0 56 -109 -23 -146 -39 -19 -50 -31 -50 -56 0 -13
8 -18 30 -18 20 0 40 -9 57 -26 23 -23 25 -31 20 -74 -7 -56 -29 -105 -52
-114 -25 -9 -55 12 -62 45 -5 25 -10 29 -39 29 -32 0 -34 -2 -34 -34 0 -45 38
-98 78 -110 47 -13 106 7 135 47 34 45 47 90 47 163 0 55 -3 66 -28 90 l-27
27 27 27 c83 83 42 220 -65 220 -23 0 -54 -8 -69 -17z"/>
<path d="M17932 3892 c-33 -31 -57 -82 -73 -150 -16 -74 -29 -229 -22 -277 16
-119 112 -159 199 -83 44 39 70 122 86 273 20 194 -10 265 -112 265 -39 0 -54
-5 -78 -28z m108 -61 c23 -45 -1 -315 -35 -381 -28 -54 -79 -46 -91 16 -14 76
19 312 51 360 19 29 60 32 75 5z"/>
<path d="M17610 3872 c-49 -48 -76 -136 -90 -285 -17 -180 13 -248 109 -251
121 -3 204 201 131 322 -25 40 -80 53 -123 28 l-30 -17 6 46 c4 25 16 63 27
85 17 32 26 40 49 40 20 0 31 -7 39 -25 11 -24 34 -31 65 -19 20 7 6 58 -25
91 -17 18 -32 23 -71 23 -44 0 -54 -4 -87 -38z m90 -261 c28 -54 -5 -192 -50
-206 -28 -9 -58 19 -60 55 -8 105 19 170 70 170 19 0 33 -7 40 -19z"/>
<path d="M17283 3885 c-52 -37 -86 -134 -103 -297 -11 -109 -2 -188 27 -226
49 -66 161 -43 202 40 33 69 53 181 55 303 1 117 -12 162 -53 185 -29 15 -103
12 -128 -5z m97 -74 c22 -43 1 -292 -32 -374 -24 -61 -82 -55 -94 9 -14 76 19
312 51 360 19 29 60 32 75 5z"/>
<path d="M16606 3872 c-2 -4 -10 -38 -16 -75 l-12 -67 -34 0 c-32 0 -34 -2
-34 -35 0 -32 3 -35 28 -35 l29 0 -11 -67 c-11 -67 -12 -68 -44 -71 -29 -3
-32 -6 -32 -38 0 -30 3 -34 26 -34 25 0 26 -2 20 -37 -20 -113 -21 -103 12
-103 34 0 38 6 47 83 7 52 9 57 32 57 23 0 25 -3 19 -35 -3 -19 -9 -51 -12
-70 -6 -34 -5 -35 25 -35 33 0 34 1 49 95 7 49 8 50 45 53 36 3 38 5 35 35 -2
27 -8 33 -30 35 -16 2 -28 6 -28 9 0 4 5 35 11 70 10 59 13 63 38 63 35 0 38
4 33 40 -3 23 -9 30 -27 30 -21 0 -22 3 -14 43 4 23 8 54 9 70 0 23 -4 27 -29
27 -28 0 -30 -3 -36 -52 -11 -75 -21 -98 -45 -98 -16 0 -20 5 -16 18 3 9 8 43
12 75 6 56 6 57 -19 57 -14 0 -28 -4 -31 -8z m70 -218 c-3 -7 -8 -40 -12 -73
-6 -56 -9 -61 -30 -61 -14 0 -24 6 -24 14 0 33 21 121 31 126 17 11 40 7 35
-6z"/>
<path d="M17027 3858 c-31 -17 -38 -25 -35 -47 2 -21 8 -25 26 -23 14 2 22 -2
22 -12 0 -17 -37 -357 -45 -418 l-5 -38 38 0 39 0 27 258 c15 141 29 267 32
280 4 19 1 22 -28 21 -18 -1 -50 -11 -71 -21z"/>
<path d="M16144 3851 c-76 -46 -113 -145 -121 -323 -9 -181 23 -242 126 -242
64 0 113 32 142 90 18 38 19 48 8 55 -29 18 -56 9 -80 -28 -30 -48 -78 -57
-103 -21 -38 54 -5 339 45 389 29 29 77 25 91 -7 11 -23 17 -25 46 -20 45 7
46 8 29 48 -31 74 -115 101 -183 59z"/>
<path d="M15926 3848 c-5 -18 -57 -508 -56 -535 0 -19 5 -23 35 -23 31 0 35 3
40 33 6 41 55 496 55 520 0 13 -8 17 -35 17 -20 0 -37 -6 -39 -12z"/>
<path d="M15646 3838 c-5 -16 -57 -515 -56 -541 0 -16 10 -17 118 -15 l117 3
3 38 3 38 -80 -7 c-45 -3 -81 -3 -81 2 0 5 11 110 25 233 14 124 25 233 25
243 0 14 -8 18 -35 18 -20 0 -37 -6 -39 -12z"/>
</g>
</svg>
